<svg width="14" height="12" viewBox="0 0 14 12" fill="none" xmlns="http://www.w3.org/2000/svg">
<path d="M2.35123 8.80462L2.36856 8.6165L2.25717 8.46392C1.64736 7.62859 1.3301 6.66983 1.3301 5.68421C1.3301 2.88275 3.93406 0.5 7.26827 0.5C10.6025 0.5 13.2064 2.88275 13.2064 5.68421C13.2064 8.48567 10.6025 10.8684 7.26827 10.8684C6.41493 10.8684 5.59417 10.7136 4.82482 10.4092L4.60256 10.3212L4.39455 10.439C3.51419 10.9373 2.4006 11.2296 1.69485 11.378C1.80708 11.1691 1.90318 10.9381 1.98507 10.6923C2.16281 10.1587 2.28532 9.5197 2.35123 8.80462Z" stroke="#768298"/>
</svg>
