<svg width="15" height="8" viewBox="0 0 15 8" fill="none" xmlns="http://www.w3.org/2000/svg">
<mask id="path-1-inside-1" fill="white">
<path fill-rule="evenodd" clip-rule="evenodd" d="M0.857287 4.48987C0.656193 4.19384 0.656193 3.80616 0.857287 3.51013C2.29641 1.39167 4.72543 0 7.4795 0C10.2336 0 12.6626 1.39167 14.1017 3.51014C14.3028 3.80616 14.3028 4.19385 14.1017 4.48987C12.6626 6.60833 10.2336 8 7.4795 8C4.72543 8 2.29641 6.60833 0.857287 4.48987Z"/>
</mask>
<path d="M14.1017 3.51014L13.2745 4.07206L14.1017 3.51014ZM14.1017 4.48987L13.2745 3.92794L14.1017 4.48987ZM1.68447 4.07206C2.9454 2.21591 5.07061 1 7.4795 1V-1C4.38026 -1 1.64742 0.567426 0.0300993 2.94821L1.68447 4.07206ZM7.4795 1C9.88839 1 12.0136 2.21591 13.2745 4.07206L14.9289 2.94821C13.3116 0.567429 10.5787 -1 7.4795 -1V1ZM13.2745 3.92794C12.0136 5.78409 9.88839 7 7.4795 7V9C10.5787 9 13.3116 7.43257 14.9289 5.05179L13.2745 3.92794ZM7.4795 7C5.07061 7 2.9454 5.78409 1.68447 3.92794L0.0300993 5.05179C1.64742 7.43257 4.38026 9 7.4795 9V7ZM13.2745 4.07206C13.2452 4.0289 13.2452 3.97111 13.2745 3.92794L14.9289 5.05179C15.3604 4.41659 15.3604 3.58342 14.9289 2.94821L13.2745 4.07206ZM0.0300993 2.94821C-0.401411 3.58342 -0.401411 4.41658 0.0300993 5.05179L1.68447 3.92794C1.7138 3.9711 1.7138 4.0289 1.68447 4.07206L0.0300993 2.94821Z" fill="#768298" mask="url(#path-1-inside-1)"/>
<circle cx="7.47942" cy="4" r="3.5" stroke="#768298"/>
<circle cx="7.47942" cy="4" r="1" fill="#768298"/>
</svg>
