<svg width="14" height="12" viewBox="0 0 14 12" fill="none" xmlns="http://www.w3.org/2000/svg">
<path d="M6.84071 10.5694L6.82981 10.5587L6.81828 10.5487C5.13581 9.08865 3.785 7.90016 2.84997 6.78416C1.92034 5.67462 1.45374 4.6964 1.45374 3.66317C1.45374 1.99042 2.76595 0.689484 4.49473 0.689484C5.44332 0.689484 6.39976 1.13107 7.0133 1.84237L7.39191 2.28132L7.77053 1.84237C8.38406 1.13107 9.3405 0.689484 10.2891 0.689484C12.0179 0.689484 13.3301 1.99042 13.3301 3.66317C13.3301 4.6964 12.8635 5.67462 11.9339 6.78416C10.9988 7.90016 9.64801 9.08865 7.96555 10.5487L7.95401 10.5587L7.94311 10.5694L7.39191 11.1101L6.84071 10.5694Z" stroke="#768298"/>
</svg>
